<?xml version="1.0" encoding="UTF-8" standalone="no"?>
<!-- Generator: Adobe Illustrator 18.0.0, SVG Export Plug-In . SVG Version: 6.00 Build 0)  -->

<svg
   xmlns:dc="http://purl.org/dc/elements/1.1/"
   xmlns:cc="http://creativecommons.org/ns#"
   xmlns:rdf="http://www.w3.org/1999/02/22-rdf-syntax-ns#"
   xmlns:svg="http://www.w3.org/2000/svg"
   xmlns="http://www.w3.org/2000/svg"
   xmlns:sodipodi="http://sodipodi.sourceforge.net/DTD/sodipodi-0.dtd"
   xmlns:inkscape="http://www.inkscape.org/namespaces/inkscape"
   version="1.1"
   id="Capa_1"
   x="0px"
   y="0px"
   viewBox="0 0 296.999 296.999"
   style="enable-background:new 0 0 296.999 296.999;"
   xml:space="preserve"
   width="512px"
   height="512px"
   inkscape:version="0.48.2 r9819"
   sodipodi:docname="hg.svg"
   inkscape:export-filename="D:\healthcare_app\github\hg.png"
   inkscape:export-xdpi="90"
   inkscape:export-ydpi="90"><metadata
   id="metadata39"><rdf:RDF><cc:Work
       rdf:about=""><dc:format>image/svg+xml</dc:format><dc:type
         rdf:resource="http://purl.org/dc/dcmitype/StillImage" /><dc:title></dc:title></cc:Work></rdf:RDF></metadata><defs
   id="defs37" /><sodipodi:namedview
   pagecolor="#ffffff"
   bordercolor="#666666"
   borderopacity="1"
   objecttolerance="10"
   gridtolerance="10"
   guidetolerance="10"
   inkscape:pageopacity="0"
   inkscape:pageshadow="2"
   inkscape:window-width="1366"
   inkscape:window-height="706"
   id="namedview35"
   showgrid="false"
   inkscape:zoom="0.4609375"
   inkscape:cx="256"
   inkscape:cy="256"
   inkscape:window-x="-8"
   inkscape:window-y="-8"
   inkscape:window-maximized="1"
   inkscape:current-layer="Capa_1" />
<path
   d="M250.923,296.999c5.627,0,10.19-4.563,10.19-10.19c0-5.628-4.563-10.19-10.19-10.19h-17.46l-0.001-31.302  c0-31.667-17.378-60.775-48.934-81.964c-3.926-2.636-6.364-8.327-6.364-14.852s2.438-12.217,6.366-14.854  c31.554-21.188,48.932-50.295,48.934-81.963V20.381h17.459c5.627,0,10.19-4.563,10.19-10.19S256.55,0,250.923,0H46.076  c-5.627,0-10.19,4.563-10.19,10.19s4.563,10.19,10.19,10.19h17.459v31.303c0,31.668,17.378,60.775,48.935,81.964  c3.925,2.636,6.363,8.326,6.363,14.853c0,6.526-2.438,12.217-6.364,14.854c-31.556,21.188-48.934,50.295-48.934,81.963v31.302  H46.076c-5.627,0-10.19,4.563-10.19,10.19c0,5.628,4.563,10.19,10.19,10.19H250.923z"
   fill="#D80027"
   id="path3"
   style="fill:#ff0000" />
<g
   id="g5">
</g>
<g
   id="g7">
</g>
<g
   id="g9">
</g>
<g
   id="g11">
</g>
<g
   id="g13">
</g>
<g
   id="g15">
</g>
<g
   id="g17">
</g>
<g
   id="g19">
</g>
<g
   id="g21">
</g>
<g
   id="g23">
</g>
<g
   id="g25">
</g>
<g
   id="g27">
</g>
<g
   id="g29">
</g>
<g
   id="g31">
</g>
<g
   id="g33">
</g>
</svg>