<?xml version="1.0" encoding="UTF-8" standalone="no"?>
<!-- Generator: Adobe Illustrator 16.0.0, SVG Export Plug-In . SVG Version: 6.00 Build 0)  -->

<svg
   xmlns:dc="http://purl.org/dc/elements/1.1/"
   xmlns:cc="http://creativecommons.org/ns#"
   xmlns:rdf="http://www.w3.org/1999/02/22-rdf-syntax-ns#"
   xmlns:svg="http://www.w3.org/2000/svg"
   xmlns="http://www.w3.org/2000/svg"
   xmlns:sodipodi="http://sodipodi.sourceforge.net/DTD/sodipodi-0.dtd"
   xmlns:inkscape="http://www.inkscape.org/namespaces/inkscape"
   version="1.1"
   id="Capa_1"
   x="0px"
   y="0px"
   width="512px"
   height="512px"
   viewBox="0 0 36.762 36.762"
   style="enable-background:new 0 0 36.762 36.762;"
   xml:space="preserve"
   inkscape:version="0.48.2 r9819"
   sodipodi:docname="hg.svg"
   inkscape:export-filename="D:\healthcare_app\github\hg.png"
   inkscape:export-xdpi="90"
   inkscape:export-ydpi="90"><metadata
   id="metadata41"><rdf:RDF><cc:Work
       rdf:about=""><dc:format>image/svg+xml</dc:format><dc:type
         rdf:resource="http://purl.org/dc/dcmitype/StillImage" /><dc:title></dc:title></cc:Work></rdf:RDF></metadata><defs
   id="defs39">
	
</defs><sodipodi:namedview
   pagecolor="#ffffff"
   bordercolor="#666666"
   borderopacity="1"
   objecttolerance="10"
   gridtolerance="10"
   guidetolerance="10"
   inkscape:pageopacity="0"
   inkscape:pageshadow="2"
   inkscape:window-width="1366"
   inkscape:window-height="706"
   id="namedview37"
   showgrid="false"
   inkscape:zoom="0.4609375"
   inkscape:cx="256"
   inkscape:cy="256"
   inkscape:window-x="-8"
   inkscape:window-y="-8"
   inkscape:window-maximized="1"
   inkscape:current-layer="Capa_1" />
<path
   style="fill:#ff0000"
   inkscape:connector-curvature="0"
   id="path5"
   d="m 7.1631631,6.0616564 0.8035866,0 C 7.9973377,11.558857 11.592614,16.435986 14.645686,19.608626 12.029164,22.2891 9.0317079,26.215273 8.2058783,30.700344 l -1.0427152,0 0,3.192101 23.4096659,0 0,-3.192101 -1.045498,0 c -0.82861,-4.485071 -3.820512,-8.411244 -6.437032,-11.091718 3.061413,-3.17264 6.656698,-8.052553 6.678944,-13.5469696 l 0.803586,0 0,-3.1893209 -23.4096659,0 z M 26.365817,9.3177114 C 25.345344,12.59045 23.037468,15.523959 21.021549,17.609389 l -1.932499,2.010358 1.949184,1.996455 c 2.146602,2.202215 4.854884,5.602861 5.625103,9.406687 l -15.59069,0 c 0.770219,-3.803826 3.47572,-7.204472 5.625106,-9.406687 l 1.949184,-1.996455 -1.932501,-2.010358 c -0.814708,-0.845294 -1.671127,-1.837961 -2.483054,-2.930725 5.30812,-0.770221 9.706991,-2.747211 12.134435,-5.3609526 z m 7.082128,-6.4481565 0,3.189321 0,2.8695548 -1.084425,0 c -0.767439,4.1625233 -3.058634,7.8356643 -5.411003,10.6690713 1.857427,2.210559 3.731535,5.027282 4.796496,8.230505 l 1.698932,0 0,2.869556 0,3.192102 0,2.872335 -2.872336,0 -23.4096644,0 -2.8723309,0 0,-2.872335 0,-3.189321 0,-2.869555 1.6989317,0 C 7.0519413,24.627564 8.9288254,21.81084 10.786247,19.600283 8.4255432,16.766875 6.1454745,13.093733 5.3724772,8.9312113 l -1.0788635,0 0,-2.8695549 0,-3.1893209 0,-2.8723355 2.8723309,0 23.4096644,0 2.872336,0 0,2.8695549 z"
   sodipodi:nodetypes="cccccccccccccccccccccccccccccccccccccccccccccccccccccc"
   inkscape:export-filename="D:\healthcare_app\github\hg.png"
   inkscape:export-xdpi="90"
   inkscape:export-ydpi="90" />
<g
   id="g7">
</g>
<g
   id="g9">
</g>
<g
   id="g11">
</g>
<g
   id="g13">
</g>
<g
   id="g15">
</g>
<g
   id="g17">
</g>
<g
   id="g19">
</g>
<g
   id="g21">
</g>
<g
   id="g23">
</g>
<g
   id="g25">
</g>
<g
   id="g27">
</g>
<g
   id="g29">
</g>
<g
   id="g31">
</g>
<g
   id="g33">
</g>
<g
   id="g35">
</g>
</svg>