<?xml version="1.0" encoding="UTF-8" standalone="no"?>
<!-- Generator: Adobe Illustrator 19.0.0, SVG Export Plug-In . SVG Version: 6.00 Build 0)  -->

<svg
   xmlns:dc="http://purl.org/dc/elements/1.1/"
   xmlns:cc="http://creativecommons.org/ns#"
   xmlns:rdf="http://www.w3.org/1999/02/22-rdf-syntax-ns#"
   xmlns:svg="http://www.w3.org/2000/svg"
   xmlns="http://www.w3.org/2000/svg"
   xmlns:sodipodi="http://sodipodi.sourceforge.net/DTD/sodipodi-0.dtd"
   xmlns:inkscape="http://www.inkscape.org/namespaces/inkscape"
   version="1.1"
   id="Layer_1"
   x="0px"
   y="0px"
   viewBox="0 0 456.014 456.014"
   style="enable-background:new 0 0 456.014 456.014;"
   xml:space="preserve"
   inkscape:version="0.48.2 r9819"
   width="100%"
   height="100%"
   sodipodi:docname="boy.svg"><metadata
   id="metadata85"><rdf:RDF><cc:Work
       rdf:about=""><dc:format>image/svg+xml</dc:format><dc:type
         rdf:resource="http://purl.org/dc/dcmitype/StillImage" /><dc:title></dc:title></cc:Work></rdf:RDF></metadata><defs
   id="defs83">
	
	
	
	
	
	
	
	
	
	
	
	
	
	
	

		
	
		
	
		
	</defs><sodipodi:namedview
   pagecolor="#ffffff"
   bordercolor="#666666"
   borderopacity="1"
   objecttolerance="10"
   gridtolerance="10"
   guidetolerance="10"
   inkscape:pageopacity="0"
   inkscape:pageshadow="2"
   inkscape:window-width="1366"
   inkscape:window-height="706"
   id="namedview81"
   showgrid="false"
   inkscape:zoom="0.51752797"
   inkscape:cx="-73.425983"
   inkscape:cy="228.007"
   inkscape:window-x="-8"
   inkscape:window-y="-8"
   inkscape:window-maximized="1"
   inkscape:current-layer="Layer_1" />
<g
   id="g3934"
   transform="translate(28.983936,-9.6613133)"
   inkscape:export-filename="D:\healthcare_app\github\pt.png"
   inkscape:export-xdpi="90"
   inkscape:export-ydpi="90"><rect
     ry="0"
     rx="0"
     y="14.013992"
     x="40.577515"
     height="456"
     width="370.99445"
     id="rect3164"
     style="color:#000000;fill:#ffffff;fill-opacity:1;fill-rule:nonzero;stroke:none;stroke-width:35.88399887;marker:none;visibility:visible;display:inline;overflow:visible;enable-background:accumulate" /><g
     id="g3151"><path
       style="fill:#ffd7a3"
       d="m 225.375,29 c -28.68388,0.01037 -57.439,0.044 -57.6875,0.0625 C 150.9235,29.8795 136.428,39.3 128.5,53 l -2.21875,0 c -23.625,0 -43.41,20.0885 -40.75,43.5625 0.019,0.169 0.0415,0.36325 0.0625,0.53125 l 11.375,91.0625 c -4.263,4.332 -6.90625,10.28575 -6.90625,16.84375 0,13.255 10.745,24 24,24 l 0,8 c 0,19.377 11.6755,36.8585 29.5625,44.3125 l 34.4375,14.34375 0,25.8125 c 0,6.887 -4.4045,13.0095 -10.9375,15.1875 l -11.5,3.8125 c -4.135,-3.523 -10.013,-4.663 -15.375,-2.875 L 101.21875,350.625 C 89.527747,354.522 81.0915,364.772 79.5625,377 l -9.875,79 312.75,0 -9.875,-79 c -1.529,-12.228 -9.934,-22.478 -21.625,-26.375 l -39.03125,-13.03125 c -5.362,-1.788 -11.24,-0.648 -15.375,2.875 l -11.5,-3.8125 c -6.533,-2.178 -10.96875,-8.3005 -10.96875,-15.1875 l 0,-25.8125 34.46875,-14.34375 C 326.41825,273.8595 338.0625,256.378 338.0625,237 l 0,-8 c 13.255,0 24,-10.745 24,-24 0,-6.558 -2.612,-12.51175 -6.875,-16.84375 L 363.625,120.6875 C 367.564,89.173499 352.83725,58.23825 325.90625,41.40625 312.94225,33.30725 297.9735,29 282.6875,29 c 0,0 -28.62862,-0.01037 -57.3125,0 z"
       id="path5"
       inkscape:connector-curvature="0" /><path
       inkscape:connector-curvature="0"
       id="path7"
       d="m 178.07474,321.46494 c 0,0.004 0,0.008 0,0.012 0,0.386 -0.017,0.769 -0.046,1.148 -0.015,0.201 -0.04,0.4 -0.062,0.6 -0.018,0.158 -0.034,0.316 -0.057,0.473 -0.043,0.308 -0.098,0.611 -0.159,0.914 -0.001,0.005 -0.002,0.01 -0.003,0.016 -0.887,4.401 -3.587,8.229 -7.425,10.539 66.925,11.562 103.752,-40.169 103.752,-40.169 h -96 l 0,26.467 0,0 z"
       style="fill:#fdc88e" /><path
       inkscape:connector-curvature="0"
       id="path9"
       d="m 325.91074,41.39394 c -12.963,-8.101 -27.942,-12.397 -43.228,-12.397 h -0.608 v 168 h 72 l 9.54,-76.322 c 3.939,-31.514 -10.773,-62.449 -37.704,-79.281 z"
       style="fill:#734a3e" /><g
       id="g11"
       transform="translate(-1.9322627,28.98394)">
		<path
   inkscape:connector-curvature="0"
   id="path13"
   d="m 87.456,67.589 c 0.019,0.169 0.039,0.338 0.06,0.506 l 12.49,99.918 h 48 v -144 h -19.808 c -23.625,0 -43.402,20.101 -40.742,43.576 z"
   style="fill:#623f33" />
	</g><path
       inkscape:connector-curvature="0"
       id="path15"
       d="m 338.07474,180.99694 v -16 c 0,-22.091 -17.909,-40 -40,-40 h -144 c -22.092,0 -40,17.909 -40,40 v 16 c -13.255,0 -24.000003,10.746 -24.000003,24 0,13.255 10.745003,24 24.000003,24 v 8 c 0,19.377 11.651,36.854 29.538,44.308 l 51.691,21.538 c 9.75,4.063 20.208,6.154 30.77,6.154 l 0,0 c 10.562,0 21.019,-2.092 30.769,-6.154 l 51.694,-21.539 c 17.887,-7.453 29.539,-24.93 29.539,-44.308 v -8 c 13.255,0 24,-10.745 24,-24 0,-13.255 -10.746,-23.999 -24.001,-23.999 z"
       style="fill:#ffe1b2" /><path
       inkscape:connector-curvature="0"
       id="path31"
       d="m 298.07474,124.99694 h -144 c -2.744,0 -5.418,0.287 -8,0.821 v -0.015 c -18.257,3.707 -32,19.843 -32,39.194 v 16 c -13.255,0 -24.000003,10.745 -24.000003,24 0,13.255 10.745003,24 24.000003,24 v 8 c 0,19.378 11.651,36.855 29.538,44.308 l 51.69,21.538 c 2.53,1.054 5.112,1.962 7.727,2.749 -22.844,-16.711 -38.05,-31.32 -46.96,-40.872 -6.482,-6.95 -9.995,-16.121 -9.995,-25.625 v -90.678 c 44.416,35.442 140.206,32.578 192,32.578 v -15.998 c 0,-22.091 -17.909,-40 -40,-40 z"
       style="fill:#ffd7a3" /><path
       inkscape:connector-curvature="0"
       id="path33"
       d="m 282.07474,28.99694 h -112 c -26.51,0 -48,21.49 -48,48 l 0,0 c 0,46.25 43.997,74.254 80,88 0,0 -4.015,-7.329 -9.423,-18.161 31.931,10.682 81.248,18.161 148.423,18.161 0,0 0,-17.25 0,-23 0,-116.667 -59,-113 -59,-113 z"
       style="fill:#734a3e" /><path
       inkscape:connector-curvature="0"
       id="path37"
       d="m 226.07474,386.99694 c 32.58,0 60.924,-18.119 75.517,-44.828 l -16.576,-5.525 c -1.609,-0.536 -3.082,-1.32 -4.398,-2.287 -11.251,18.354 -31.436,30.64 -54.542,30.64 -23.106,0 -43.291,-12.286 -54.542,-30.64 -1.317,0.966 -2.79,1.75 -4.398,2.287 l -16.577,5.525 c 14.591,26.709 42.936,44.828 75.516,44.828 z"
       style="fill:#b97e63" /><path
       style="fill:#ffa64e"
       d="m 145.4375,336.75 c -1.73345,-0.003 -3.4875,0.277 -5.1875,0.84375 L 101.21875,350.625 C 89.527747,354.522 81.0905,364.772 79.5625,377 l -9.875,79 312.75,0 -9.875,-79 c -1.528,-12.228 -9.935,-22.478 -21.625,-26.375 l -39.03125,-13.03125 c -6.8,-2.267 -14.4715,0.16675 -18.3125,6.21875 C 279.41275,366.1555 254.4865,381 226.0625,381 c -28.424,0 -53.35025,-14.8445 -67.53125,-37.1875 -2.88075,-4.539 -7.89339,-7.0543 -13.09375,-7.0625 z"
       id="path41"
       inkscape:connector-curvature="0" /><path
       style="fill:#ff8c51"
       d="M 86.25,361.15625 C 82.698,365.65325 80.3015,371.087 79.5625,377 l -9.875,79 68.375,0 0,-23.0625 c 0,-7.697 -2.7735,-15.15075 -7.8125,-20.96875 l -44,-50.8125 z m 279.65625,0 -44.03125,50.8125 c -5.039,5.818 -7.8125,13.27175 -7.8125,20.96875 l 0,23.0625 68.375,0 -9.875,-79 c -0.739,-5.913 -3.10425,-11.34675 -6.65625,-15.84375 z"
       id="path45"
       inkscape:connector-curvature="0" /></g></g>
<g
   id="g51">
</g>
<g
   id="g53">
</g>
<g
   id="g55">
</g>
<g
   id="g57">
</g>
<g
   id="g59">
</g>
<g
   id="g61">
</g>
<g
   id="g63">
</g>
<g
   id="g65">
</g>
<g
   id="g67">
</g>
<g
   id="g69">
</g>
<g
   id="g71">
</g>
<g
   id="g73">
</g>
<g
   id="g75">
</g>
<g
   id="g77">
</g>
<g
   id="g79">
</g>
</svg>